<svg width="960" height="540" viewBox="0 0 960 540" fill="none" xmlns="http://www.w3.org/2000/svg">
<g clip-path="url(#clip0_3280_494)">
<path d="M0 456.265L22.9333 456.799C45.8667 457.332 91.7333 458.399 137.387 450.079C183.147 441.652 228.587 423.945 274.347 420.319C320 416.799 365.867 427.465 411.52 425.119C457.28 422.879 502.72 407.519 548.48 396.745C594.133 385.865 640 379.465 685.653 385.119C731.413 390.879 776.853 408.585 822.613 410.719C868.267 412.852 914.133 399.412 937.067 392.585L960 385.865V629.065H937.067C914.133 629.065 868.267 629.065 822.613 629.065C776.853 629.065 731.413 629.065 685.653 629.065C640 629.065 594.133 629.065 548.48 629.065C502.72 629.065 457.28 629.065 411.52 629.065C365.867 629.065 320 629.065 274.347 629.065C228.587 629.065 183.147 629.065 137.387 629.065C91.7333 629.065 45.8667 629.065 22.9333 629.065H0V456.265Z" fill="#FA7268"/>
<path d="M0 438.134L22.9333 437.814C45.8667 437.387 91.7333 436.747 137.387 443.254C183.147 449.867 228.587 463.734 274.347 461.814C320 459.787 365.867 442.081 411.52 434.614C457.28 427.147 502.72 429.921 548.48 438.134C594.133 446.347 640 459.787 685.653 462.454C731.413 465.121 776.853 457.014 822.613 459.681C868.267 462.347 914.133 475.787 937.067 482.614L960 489.334V629.067H937.067C914.133 629.067 868.267 629.067 822.613 629.067C776.853 629.067 731.413 629.067 685.653 629.067C640 629.067 594.133 629.067 548.48 629.067C502.72 629.067 457.28 629.067 411.52 629.067C365.867 629.067 320 629.067 274.347 629.067C228.587 629.067 183.147 629.067 137.387 629.067C91.7333 629.067 45.8667 629.067 22.9333 629.067H0V438.134Z" fill="#EF5F67"/>
<path d="M0 491.468L22.9333 497.655C45.8667 503.948 91.7333 516.322 137.387 517.815C183.147 519.202 228.587 509.602 274.347 508.215C320 506.722 365.867 513.548 411.52 515.468C457.28 517.388 502.72 514.615 548.48 510.455C594.133 506.402 640 501.068 685.653 498.188C731.413 495.415 776.853 494.988 822.613 492.002C868.267 489.015 914.133 483.255 937.067 480.482L960 477.602V629.068H937.067C914.133 629.068 868.267 629.068 822.613 629.068C776.853 629.068 731.413 629.068 685.653 629.068C640 629.068 594.133 629.068 548.48 629.068C502.72 629.068 457.28 629.068 411.52 629.068C365.867 629.068 320 629.068 274.347 629.068C228.587 629.068 183.147 629.068 137.387 629.068C91.7333 629.068 45.8667 629.068 22.9333 629.068H0V491.468Z" fill="#E34C67"/>
<path d="M0 541.601L22.9333 538.081C45.8667 534.455 91.7333 527.415 137.387 525.068C183.147 522.721 228.587 525.281 274.347 524.321C320 523.468 365.867 519.201 411.52 523.255C457.28 527.415 502.72 539.788 548.48 537.868C594.133 535.948 640 519.521 685.653 517.388C731.413 515.255 776.853 527.415 822.613 534.988C868.267 542.668 914.133 545.868 937.067 547.468L960 549.068V629.068H937.067C914.133 629.068 868.267 629.068 822.613 629.068C776.853 629.068 731.413 629.068 685.653 629.068C640 629.068 594.133 629.068 548.48 629.068C502.72 629.068 457.28 629.068 411.52 629.068C365.867 629.068 320 629.068 274.347 629.068C228.587 629.068 183.147 629.068 137.387 629.068C91.7333 629.068 45.8667 629.068 22.9333 629.068H0V541.601Z" fill="#D53867"/>
</g>
<defs>
<clipPath id="clip0_3280_494">
<rect width="960" height="540" fill="white"/>
</clipPath>
</defs>
</svg>
