<?xml version="1.0" standalone="no"?>
<!DOCTYPE svg PUBLIC "-//W3C//DTD SVG 20010904//EN"
 "http://www.w3.org/TR/2001/REC-SVG-20010904/DTD/svg10.dtd">
<svg version="1.0" xmlns="http://www.w3.org/2000/svg"
 width="694.000000pt" height="694.000000pt" viewBox="0 0 694.000000 694.000000"
 preserveAspectRatio="xMidYMid meet">
<metadata>
Created by potrace 1.14, written by Peter Selinger 2001-2017
</metadata>
<g transform="translate(0.000000,694.000000) scale(0.100000,-0.100000)"
fill="#000000" stroke="none">
<path d="M217 6204 c-1 -1 -49 -5 -105 -7 -57 -3 -106 -7 -108 -10 -4 -4 37
-87 89 -179 15 -27 38 -67 50 -90 13 -24 75 -133 137 -243 63 -110 122 -215
131 -233 10 -18 22 -38 27 -45 5 -7 23 -37 39 -67 51 -94 85 -153 110 -192 12
-21 23 -40 23 -43 0 -4 14 -27 32 -53 18 -26 31 -47 28 -47 -2 0 3 -11 12 -25
47 -75 168 -291 168 -300 0 -5 5 -10 10 -10 6 0 10 -4 10 -10 0 -5 32 -64 71
-132 40 -67 80 -137 90 -154 9 -17 23 -42 31 -55 7 -13 15 -26 18 -29 3 -3 10
-14 16 -25 41 -76 84 -151 159 -279 47 -81 85 -150 85 -152 0 -2 11 -23 26
-45 25 -40 30 -49 95 -164 18 -33 37 -61 41 -63 4 -2 8 -8 8 -12 0 -5 29 -59
65 -121 36 -61 65 -114 65 -116 0 -3 8 -17 19 -31 10 -15 29 -47 43 -72 43
-78 180 -313 205 -352 12 -21 23 -40 23 -42 0 -3 14 -29 31 -58 54 -90 249
-430 249 -433 0 -2 17 -32 38 -66 21 -35 52 -89 69 -119 16 -30 39 -71 50 -90
11 -19 29 -51 39 -70 11 -19 25 -40 32 -48 6 -7 12 -20 12 -28 0 -8 4 -14 9
-14 5 0 11 -8 15 -17 6 -19 10 -27 99 -173 32 -52 63 -104 70 -115 7 -11 38
-59 70 -108 l59 -89 34 51 c19 27 34 54 34 59 0 5 6 15 14 21 8 7 21 26 30 44
9 18 26 49 39 69 22 37 209 357 237 407 8 14 28 49 44 76 17 28 41 70 55 95
15 25 46 81 71 124 25 43 58 101 73 130 16 28 36 62 45 76 9 14 26 43 38 65
11 22 30 56 41 75 30 51 560 977 591 1030 14 24 74 130 135 235 60 104 123
215 140 245 17 30 33 57 36 60 3 3 16 23 28 45 11 22 31 56 42 75 12 19 27 47
33 63 7 15 16 27 20 27 4 0 8 4 8 9 0 5 36 71 81 147 44 77 91 157 104 179 34
60 134 234 160 280 12 22 54 94 92 160 38 66 100 174 138 240 38 66 73 123 78
126 5 4 147 5 316 3 168 -3 316 -4 328 -4 36 0 35 -15 -6 -87 -37 -66 -91
-163 -118 -213 -8 -14 -28 -47 -44 -75 -16 -27 -35 -61 -42 -75 -6 -14 -14
-27 -17 -30 -3 -3 -10 -14 -16 -25 -27 -49 -64 -114 -91 -161 -17 -27 -41 -70
-55 -95 -14 -24 -35 -61 -47 -82 -11 -20 -29 -52 -40 -70 -10 -18 -50 -88 -90
-155 -39 -68 -71 -127 -71 -132 0 -6 -4 -10 -10 -10 -5 0 -10 -4 -10 -10 0 -5
-19 -42 -43 -82 -24 -40 -46 -80 -50 -88 -4 -8 -16 -29 -26 -46 -10 -17 -81
-138 -156 -270 -76 -131 -146 -252 -156 -269 -10 -16 -30 -52 -44 -79 -43 -79
-50 -91 -55 -96 -3 -3 -11 -16 -18 -29 -129 -228 -157 -276 -162 -281 -3 -3
-11 -16 -17 -30 -7 -14 -25 -47 -41 -75 -16 -27 -52 -90 -81 -138 -28 -49 -51
-93 -51 -98 0 -5 -4 -9 -10 -9 -5 0 -10 -5 -10 -10 0 -6 -31 -65 -70 -131 -38
-66 -70 -124 -70 -129 0 -6 -4 -10 -9 -10 -5 0 -11 -8 -14 -18 -6 -18 -46 -89
-103 -183 -19 -31 -34 -62 -34 -68 0 -6 -4 -11 -10 -11 -5 0 -10 -7 -10 -15 0
-8 -4 -15 -10 -15 -5 0 -9 -3 -8 -8 1 -4 -16 -38 -39 -77 -22 -38 -78 -135
-123 -215 -45 -80 -91 -161 -103 -180 -11 -19 -28 -51 -39 -70 -11 -19 -29
-51 -40 -70 -11 -19 -36 -64 -56 -100 -19 -36 -38 -69 -42 -75 -9 -11 -31 -50
-86 -152 -20 -37 -46 -81 -58 -98 -12 -16 -19 -30 -17 -30 3 0 -2 -11 -11 -25
-18 -28 -63 -109 -106 -190 -16 -30 -39 -73 -51 -94 -35 -61 -56 -57 311 -60
269 -2 328 5 360 45 10 13 64 101 120 194 55 94 110 186 122 205 28 46 42 71
99 171 26 46 52 91 57 99 6 8 33 56 61 105 28 50 59 104 69 120 9 17 45 80 79
140 35 61 66 115 70 120 5 6 22 35 38 65 41 76 241 427 267 470 12 19 27 44
33 55 6 12 74 131 151 266 77 135 153 267 168 294 15 27 40 71 55 97 16 27 29
53 29 58 0 6 4 10 9 10 5 0 11 8 14 18 3 9 20 42 37 72 18 30 87 152 155 270
68 118 132 231 143 250 11 19 33 58 48 85 14 28 35 62 45 77 11 14 19 28 19
31 0 5 124 221 161 282 11 17 22 37 25 45 6 13 32 59 105 186 13 23 53 92 88
155 36 63 68 116 71 119 3 3 14 21 24 40 9 19 28 53 41 75 13 22 27 46 31 53
9 18 138 242 185 322 22 36 44 77 51 93 7 15 16 27 20 27 4 0 8 4 8 9 0 5 23
48 50 96 28 48 50 90 50 95 0 5 4 10 8 12 5 2 39 59 78 128 38 69 73 133 79
142 15 25 86 158 108 201 11 21 18 40 15 42 -13 13 -204 17 -1088 22 l-975 5
-135 -237 c-74 -131 -148 -260 -164 -289 -16 -28 -97 -168 -179 -311 -82 -143
-163 -285 -180 -315 -17 -30 -48 -84 -69 -119 -21 -34 -38 -64 -38 -66 0 -1
-22 -41 -50 -89 -27 -48 -50 -91 -50 -96 0 -6 -4 -10 -10 -10 -5 0 -10 -4 -10
-8 0 -5 -55 -105 -123 -223 -68 -118 -132 -230 -142 -249 -11 -19 -26 -41 -32
-48 -7 -7 -13 -17 -13 -22 0 -5 -22 -47 -49 -92 -46 -79 -60 -103 -119 -207
-14 -25 -38 -67 -53 -93 -16 -27 -29 -53 -29 -58 0 -6 -3 -10 -7 -10 -5 0 -21
-27 -37 -60 -16 -33 -33 -60 -38 -60 -4 0 -8 -4 -8 -9 0 -5 -43 -85 -96 -177
-53 -93 -106 -186 -118 -207 -11 -21 -25 -46 -31 -55 -5 -10 -62 -107 -125
-217 -126 -218 -176 -283 -207 -267 -18 10 -76 103 -148 237 -21 39 -45 78
-54 89 -9 10 -15 20 -13 22 2 3 -13 31 -32 63 -20 32 -36 64 -36 70 0 6 -4 11
-10 11 -5 0 -10 4 -10 8 0 5 -59 112 -131 238 -72 126 -145 254 -162 284 -17
30 -45 79 -64 108 -18 29 -33 59 -33 66 0 8 -4 16 -8 18 -6 2 -147 241 -199
337 -8 14 -23 40 -33 56 -11 17 -26 44 -34 60 -9 17 -27 48 -41 70 -13 22 -28
47 -32 55 -4 8 -19 35 -33 61 -15 25 -38 65 -52 90 -14 24 -42 73 -63 109 -21
36 -49 85 -63 110 -14 25 -36 62 -49 82 -12 21 -23 42 -23 48 0 5 -4 10 -9 10
-5 0 -11 8 -14 18 -3 9 -20 40 -36 67 -17 28 -35 59 -41 70 -6 11 -24 43 -40
70 -17 28 -35 59 -40 70 -6 11 -55 97 -109 190 -60 103 -96 174 -91 179 12 12
680 16 680 5 0 -5 16 -33 35 -63 19 -30 35 -57 35 -59 0 -3 29 -52 65 -111 36
-58 65 -111 65 -116 0 -6 5 -10 10 -10 6 0 9 -3 8 -7 -1 -5 5 -19 14 -33 15
-23 386 -662 430 -740 18 -31 204 -349 228 -390 84 -141 126 -209 141 -228
l18 -23 38 58 c21 32 41 60 46 61 4 2 7 8 7 14 0 5 14 29 30 53 17 24 30 46
30 48 0 5 62 110 98 167 9 14 14 25 11 25 -2 0 5 14 17 30 11 17 30 50 43 75
l23 45 -37 70 c-58 106 -60 110 -66 115 -4 3 -9 15 -13 27 -4 13 -13 29 -19
35 -7 7 -22 31 -33 53 -12 22 -81 144 -154 270 -73 127 -144 250 -158 275 -14
25 -50 88 -80 140 -154 267 -196 339 -220 380 -14 25 -36 63 -49 85 -12 22
-26 47 -30 55 -4 8 -37 64 -73 125 -37 60 -77 129 -90 153 l-25 44 -927 -3
c-511 -1 -929 -4 -931 -5z"/>
</g>
</svg>
